<svg xmlns="http://www.w3.org/2000/svg" width="106" height="23"><path fill="#FFF" fill-rule="evenodd" d="M42 17.4l-1 5.3h-4l4.8-22h4.8l4.4 22h-4l-1-5.3h-4zm3.7-3l-.8-5c-.4-1.3-.6-3.5-1-5-.2 1.6-.5 3.8-.8 5l-.8 5h3.3zM63.7 0v18l.2 4.7h-3.5l-.2-1.8c-.7 1-2 2-3.4 2-3.4 0-5-3.6-5-8.2 0-5.7 2.4-8.4 5-8.4 1.4 0 2.3.7 2.8 1.7V0h4zm-4 12.8v-1c0-1-.7-2-1.6-2-1.5 0-2 2.3-2 5 0 3 .7 5 2 5 .6 0 1.3-.4 1.7-1.7V13zM72 23c-3.6 0-6-3-6-8.2 0-5.8 3-8.4 6-8.4 3.7 0 6 3 6 8.3 0 6.6-3.5 8.3-6 8.3zm0-3c1.6 0 2-3 2-5.3s-.4-5.2-2-5.2-2 3-2 5.2c0 2.7.4 5.2 2 5.2zm8.2-20h4v8.4c1-1.3 2-2 3.4-2 3 0 4.5 3.4 4.5 8 0 5.6-2 8.6-5 8.6-1.4 0-2.3-.6-3.2-2.2l-.3 2H80c.2-1.4.2-3.2.2-4.7V0zm4 17c0 .4 0 .8.2 1 .4 1.4 1 1.7 1.6 1.7 1.5 0 2.2-2 2.2-5s-.7-5-2.2-5c-.8 0-1.4 1-1.6 1.8l-.2 1V17zm13.5-1c0 3 1.5 4 3.4 4 1.3 0 2.4-.4 3-.7l.6 3c-1 .3-2.6.6-4.2.6-4.3 0-6.6-3-6.6-8 0-5.4 2.7-8.6 6.2-8.6 3.4 0 5.3 2.8 5.3 7.5v2h-7.6zm4-2.8c0-2.3-.7-4-2-4-1.4 0-2 2.3-2 4h4zM13 8.5L19 23h-4l-1.8-4.6H8.8l4.2-10zM9.6 0H0v23L9.6 0zm6.7 0H26v23L16.2 0z" opacity=".2"/></svg>