<svg xmlns="http://www.w3.org/2000/svg" width="140" height="30">
  <path fill="#FFF" fill-rule="evenodd" d="M47.35 8.14h-1.37l-6.12 13.4h2.4l1.3-2.86h7.6l1.3 2.85h2.4l-6.14-13.4h-1.37zm0 2.24L44.7 16.2H50l-2.65-5.82zM136.7 0H2.9C1.3 0 0 1.5 0 3.38v23.24C0 28.48 1.3 30 2.9 30h133.84c1.6 0 2.9-1.5 2.9-3.38V3.38C139.62 1.5 138.34 0 136.7 0zm-.97 21.84c0 1.86-1.3 3.38-2.9 3.38H6.8c-1.62 0-2.9-1.5-2.9-3.38V7.9c0-1.88 1.28-3.38 2.9-3.38h126.05c1.6 0 2.9 1.5 2.9 3.38v13.94h-.02zM7.37 15v6.96h10.8v-.03c.95-.14 1.7-1.64 1.7-3.47 0-1.8-.7-3.26-1.63-3.46.92-.2 1.64-1.67 1.64-3.46 0-1.83-.76-3.33-1.7-3.47l-10.8-.03V15zm9.2 3.87H10V16h6.58c.58.06 1.03.68 1.03 1.44 0 .76-.4 1.38-1 1.43zm0-5.5H10v-2.85h6.58c.58.04 1.03.66 1.03 1.42 0 .76-.4 1.38-1 1.43zm74.25 2.38v3.52h9.56v2.47h-11.7V8.18h2.14v.03h9.56v2.5h-9.56v2.6h5.77v2.5h-5.8zm-64.66-.05v6.04H23.6V8.04l11.16.02c.96.14 1.74 1.78 1.74 3.8 0 2-.76 3.67-1.74 3.8v.03H31l6.24 6h-3.42l-6.24-6.08h-1.42zm6.33-1.93h-6.6v-2.85h6.6c.5.05 1 .67 1 1.43 0 .73-.5 1.35-1 1.42zm74.3 1.93v6.04h-2.6V8.04l11.14.02c.97.14 1.74 1.78 1.74 3.8 0 2-.75 3.67-1.74 3.8v.03h-3.74l6.24 6h-3.43l-6.23-6.08h-1.4zm6.3-1.93h-6.6v-2.85h6.6c.54.05 1 .67 1 1.43 0 .73-.46 1.35-1 1.42zM131 10.6h-7.1v2.9h7.38c1.18 0 2.14 1.1 2.14 2.5v3.12c0 1.38-.96 2.5-2.15 2.5-.1 0-.2 0-.3-.03h-8.1v-.1h-.04c-1.2 0-2.13-1.1-2.13-2.48v-1.3h2.43V19h7.82v-2.97h-7.1l-.3.02c-1.15 0-2.12-1.12-2.12-2.47v-3.1c0-1.4.97-2.48 2.13-2.48h7.75c1.3 0 2.2 1.14 2.2 2.57v1.33H131v-1.3zM58.9 21.56h-2.1l8.8-11.04h-7.1v-2.6h12.56L62.22 19h7.6v2.6H58.9v-.02zm14.84 0h-2.1l8.76-11.04h-7.05v-2.6h12.52L77.05 19h7.63v2.6H73.72v-.02z" opacity=".2"/>
</svg>
