<svg xmlns="http://www.w3.org/2000/svg" width="139" height="36"><path fill="#FFF" fill-rule="evenodd" d="M3 6.8H6c.2 0 .4 0 .4-.3V2.8c0-.6 0-1.2.3-1.6V1L.6 7.3h.3c.4-.4 1-.5 2-.5zM28.5 6c-.3-1.3-1-2-1.8-2.3L22.2 3c-1.6-.3-3.6-.3-4.8-.2 0-1-.8-2-1.6-2.2-2-.8-5.2-.6-6-.4-.6.2-1.3.5-1.7 1-.2.5-.3 1-.3 1.6v3.7c0 .7-.6 1.3-1.3 1.3H3c-.6 0-1 0-1.6.3L.4 9c-.3.6-.4 1.3-.4 2l.2 1.8c0 1 1 7.3 2 9.3.4.6.6 1 1.3 1.3 1.6.6 5.3 1.4 7 1.6 1.7 0 2.7.6 3.4-.7l.2-1c.5-1.5.6-3 .6-4 0-.2.2-.2.2 0 0 .7-.2 3.3 2 4 .7.3 2.3.6 4 .8 1.5.3 2.7 1 2.7 4.8 0 2.4-.5 2.7-3.2 2.7-2 0-3 0-3-1.6 0-1.5 1.4-1.3 2.5-1.3.4 0 0-.4 0-1.2 0-1 .6-1.3 0-1.4-3.4 0-5.4 0-5.4 4.5 0 4 1.5 4.6 6.4 4.6 4 0 5.2 0 6.8-5 .3-1 1-4 1.5-9 .3-3-.2-12.5-.7-15zM22 16.7h-1.5c.2-1 .6-2 2-2 1.6 0 1.8 1.5 1.8 2.5l-2.4-.4zM34 22h1.4v-9.5H34v-1.8h9.7v3.7H42l-.3-2H38v3.8h3.7V18H38v4h3.7l.2-2h2l-.2 3.8h-10V22zm25.4-9.5h-1.2l-4.7 11.3h-2.7l-4.6-11.3H45v-1.8h5.4v1.8H49l3.4 9 3.2-9H54v-1.8h5.4v1.8zm1.3 9.5h1.5v-9.5h-1.5v-1.8h9.8v3.7h-1.8l-.2-2h-3.7v3.8h3.7V18h-3.7v4h3.7l.2-2h2l-.2 3.8h-9.8V22zm12.5 0h1.5v-9.5h-1.5v-1.8h6c3 0 4 1.8 4 3.5 0 1.5-.7 2.8-3 3.4 1.2.4 1.5.7 2.7 2.8.7 1.4 1 1.6 1.5 1.6h.5v1.8h-1.3c-1.8 0-2-.2-3.4-3-1.2-2.4-1.5-2.6-2.4-2.6h-.7V22H79v1.8H73V22zm4.2-5.6h1c1.4 0 2.3-.7 2.3-2 0-1-.5-2-1.7-2h-1.6v4zm19.6-4h-1.5v-1.7h5v1.8h-1.4v11.3h-2l-7-9.3V22h1.5v1.8h-5V22h1.4v-9.5h-1.6v-1.8h4l6.5 9v-7.2zm11-2c4.5 0 6.5 3 6.5 6.7 0 4.2-2.5 7-6.5 7-4.5 0-6.5-3-6.5-6.6 0-4 2.5-7 6.5-7zm0 11.6c2.4 0 3.8-2 3.8-4.8 0-3-1.6-4.6-3.8-4.6-2.4 0-3.8 2-3.8 4.7 0 3 1.6 4.7 3.8 4.7zm10.6 0h1.5v-9.5h-2.5v2h-2v-3.8h11.8v3.7h-1.8v-2h-2.8V22h1.5v1.8h-5.6V22zm10.3 0h1.4v-9.5H129v-1.8h9.7v3.7H137l-.3-2H133v3.8h3.7V18H133v4h3.7l.2-2h2l-.2 3.8h-10V22z" opacity=".2"/></svg>