<svg xmlns="http://www.w3.org/2000/svg" width="458" height="36">
  <g fill="#FFF" fill-rule="evenodd">
    <path d="M454.715 0H320.907C319.29 0 318 1.5 318 3.378v23.244c0 1.855 1.29 3.378 2.907 3.378h133.828c1.597 0 2.908-1.5 2.908-3.378V3.378c-.02-1.88-1.31-3.378-2.928-3.378zm-89.362 8.136h-1.372l-6.12 13.395h2.395l1.305-2.854h7.586l1.304 2.855h2.416l-6.142-13.394h-1.37zm0 2.24L362.69 16.2h5.325l-2.662-5.824zm88.38 11.464c0 1.855-1.29 3.378-2.908 3.378H324.797c-1.617 0-2.907-1.5-2.907-3.378V7.898c0-1.88 1.29-3.378 2.907-3.378h126.05c1.596 0 2.906 1.5 2.906 3.378V21.84h-.02zM325.37 15v6.96h10.81v-.025c.94-.143 1.7-1.642 1.7-3.473 0-1.79-.725-3.262-1.636-3.462.91-.2 1.635-1.672 1.635-3.462 0-1.83-.76-3.33-1.7-3.473l-10.81-.024V15zm9.213 3.866h-6.592V16.01h6.593c.573.05 1.023.667 1.023 1.43 0 .76-.45 1.378-1.023 1.426zm0-5.496h-6.592v-2.855h6.593c.573.048 1.023.667 1.023 1.428 0 .76-.45 1.38-1.023 1.427zm74.233 2.38v3.52h9.56v2.475h-11.69V8.184h2.13v.024h9.56v2.474h-9.56v2.593h5.773v2.474h-5.774zm-64.652-.048v6.043h-2.56V8.04l11.158.025c.962.143 1.74 1.784 1.74 3.807 0 1.998-.757 3.663-1.74 3.806v.024H349l6.24 6.043h-3.42l-6.24-6.043h-1.416zm6.326-1.927h-6.592V10.92h6.592c.573.047 1.023.666 1.023 1.427 0 .738-.45 1.356-1.023 1.428zm74.335 1.927v6.043h-2.56V8.04l11.16.025c.96.143 1.74 1.784 1.74 3.807 0 1.998-.76 3.663-1.74 3.806v.024h-3.764l6.24 6.043h-3.418l-6.24-6.043h-1.417zm6.326-1.927h-6.59V10.92h6.59c.574.047 1.025.666 1.025 1.427 0 .738-.45 1.356-1.024 1.428zm17.874-3.188h-7.104v2.902h7.206v.007c.054-.005.11-.008.164-.008 1.187 0 2.15 1.117 2.15 2.497v3.14c0 1.38-.963 2.5-2.15 2.5-.1 0-.198-.01-.295-.025h-8.1v-.024h-.04c-1.187 0-2.13-1.118-2.13-2.474v-1.31h2.437v1.24h7.82v-2.975h-7.096c-.096.014-.195.022-.294.022-1.167 0-2.13-1.118-2.13-2.474v-3.116c0-1.38.963-2.475 2.13-2.475.07 0 .138.004.205.01v-.01h7.33v.013c.073-.008.148-.013.224-.013 1.23 0 2.212 1.142 2.212 2.57v1.356h-2.538v-1.356zm-72.145 10.99h-2.11l8.803-11.038h-7.083V7.945h12.549l-8.823 11.063h7.614V21.6h-10.95v-.024zm14.84 0h-2.107l8.77-11.038h-7.05V7.945H403.84l-8.788 11.063h7.622V21.6H391.72v-.024zM256.043 22.227c-28.76-2.29-52.478 4.797-57.894 7.38-2.963 1.413-3.202 3.115-2.803 4.067.34.815 1.742 1.218 3.326.364 11.446-6.174 34.545-11.173 57.327-9.774 1.114.068 1.633-1.91.043-2.037zm7.187-8.712c-1.258 1.43-2.986 2.45-3.58 1.932-.593-.517.015-2.103.015-2.103C262.488 11.58 268 6.818 268 3.16c0-3.38-2.903-4.403-6.138-1.308-2.208 2.11-4.232 5.993-5.387 9.916-1.642 1.64-4.18 3.717-6.514 3.717-1.197 0-1.558-.856-1.44-1.998 2.02-.113 7.44-1.668 7.44-6.25-.08-2.01-1.625-2.755-3.01-2.755-2.454 0-5.647 2.565-7.205 6.17-.41-.07-.83-.212-1.21-.47.496-1.11.822-2.09.914-2.763.25-1.838-.478-3.108-1.985-3.04-.968.042-2.15.905-2.438 3.02-.197 1.443.545 2.954.545 2.954-.7 2.176-3.384 4.853-4.333 4.824-.87-.026.18-3.912 1.085-6.745.57-.606 1.048-1.277 1.197-1.866.24-.946-.123-1.37-.417-1.582-.684-.496-2.567-.332-3.615 1.53-.27.48-.636 1.248-1.008 2.184-.78.923-1.916 2.19-2.29 1.97-.57-.337 1.13-2.682.946-4.023-.166-1.22-1.128-1.833-2.174-1.69-1.47.2-3.466 3.285-3.466 3.285s.4-.92.372-1.732c-.04-1.117-2.215-1.663-3.206.444-.363.772-.986 3.428-1.547 6.06-.5.916-2.114 3.683-3.44 3.825-1.085.117.234-4.918.39-5.167.577-.938 1.375-2.912 1.277-3.813-.127-1.173-.888-1.428-1.66-1.29-1.09.196-1.658 1.34-1.658 1.34s-.675-.937-2.06-.787c-4.538.49-7.488 8.417-7.113 12.32.193 2.02 1.25 3.268 2.89 3.08 2.035-.233 3.616-3.238 3.616-3.238s.466 2.384 2.584 2.06c1.442-.22 2.88-1.455 4.066-2.816-.048.256-.08.438-.092.516-.3 1.968 2.994 1.83 3.22.19 1.04-7.567 3.59-10.756 4.333-10.756.614 0-1.65 3.597-.318 5.057 1.07 1.172 2.77.198 4.16-1.024-.21.985-.356 2.002-.38 2.992-.048 2.175.742 3.895 2.826 3.795 2.782-.133 5.673-3.522 7.57-6.782.43.3.97.556 1.645.687-.14.787-.198 1.6-.15 2.43.14 2.523 1.877 3.443 3.84 3.4 2.342-.054 5.022-1.85 6.985-3.48-.013.094-.027.19-.038.282-.142 1.15.034 3.426 1.728 3.58 2.02.185 5.437-1.848 7.123-4.034 1.25-1.62-.227-3.007-1.23-1.868zm1.794-10.435c.183 0 .275.14.275.424 0 2.158-5.316 6.742-5.316 6.742s3.49-7.166 5.04-7.166zM216.6 11.01c-.168 1.313-2.392 7.052-3.6 7.086-1.548.043.768-8.22 3.256-8.163.44.01.43.387.344 1.076zm35.62-3.325c.432 0 .677.252.677.687 0 1.146-1.603 2.064-3.4 2.197.81-1.56 1.946-2.885 2.722-2.885zm-55.05 4.896c1.493.017-1.138 7.73-.855 11.083.285 3.383 4.05 2.41 3.81.46-.407-3.31 1.81-13.683 4.06-13.683 1.578 0-1.748 7.152-1.093 11.73.433 3.03 4.363 1.98 3.964.183-1.322-5.945 2.772-11.66 2.313-15.707-.202-1.772-1.273-2.638-2.345-2.647-3.75-.03-6.65 7.622-6.65 7.622s.302-4.35-2.614-4.508c-4.463-.245-8.883 10.865-8.757 20.786.04 3.165 4 2.626 3.792.103-.387-4.693 2.244-15.444 4.374-15.422zM128.893 21.974h1.477l.075-9.435h-1.552v-1.813h9.798l.118 3.67h-1.93l-.164-1.858h-3.694l-.02 3.69h3.74v1.812h-3.76l-.03 3.932h3.716l.24-2.1H139l-.24 3.905h-9.867v-1.806zm-10.292 0h1.478l.068-9.435h-2.623l-.096 1.858h-1.977l.144-3.67H127.3l.145 3.67h-1.978l-.096-1.86h-2.622l-.068 9.436h1.55v1.812h-5.622l-.007-1.812zm-10.586-11.5c4.504 0 6.482 2.977 6.482 6.6 0 4.118-2.458 6.98-6.482 6.98-4.504 0-6.48-2.978-6.48-6.622 0-4.104 2.457-6.96 6.48-6.96zm0 11.48c2.43 0 3.81-2.073 3.81-4.715 0-2.98-1.62-4.667-3.81-4.667-2.43 0-3.81 2.072-3.81 4.763 0 2.923 1.62 4.618 3.81 4.618zM97.03 12.546h-1.553v-1.812h5.122v1.812h-1.477l-.07 11.24h-1.956l-6.975-9.292h-.048l-.076 7.48h1.552v1.812h-5.122v-1.812h1.476l.07-9.435H86.42v-1.813h3.86l6.625 8.84h.048l.076-7.02zm-23.785 9.428h1.477l.068-9.435h-1.552v-1.813h6.03c3.027 0 4.002 1.736 4.002 3.43 0 1.504-.742 2.863-3.076 3.453v.048c1.215.336 1.524.645 2.74 2.738.81 1.36 1.098 1.572 1.55 1.572.193 0 .378-.048.55-.07v1.88h-1.332c-1.764 0-1.977-.21-3.357-2.95-1.243-2.43-1.525-2.594-2.48-2.594h-.52l-.028 3.74h1.552v1.812h-5.625v-1.812zm4.127-5.55h1.023c1.407 0 2.355-.763 2.355-1.978 0-1.194-.598-1.907-1.785-1.907h-1.573l-.02 3.883zm-16.684 5.55h1.476l.068-9.435h-1.544v-1.813h9.79l.117 3.67h-1.93l-.164-1.858h-3.693l-.02 3.69h3.74v1.812h-3.76l-.028 3.932h3.713l.24-2.1h2.094l-.24 3.905h-9.86v-1.806zm-1.284-9.428h-1.236l-4.648 11.24h-2.67l-4.67-11.24h-1.31v-1.812h5.574v1.812h-1.312l3.22 8.86h.048l3.193-8.86H54.02v-1.812h5.384v1.812zm-25.5 9.428h1.476l.07-9.435h-1.553v-1.813h9.79l.117 3.67h-1.93l-.164-1.858h-3.694l-.02 3.69h3.742v1.812h-3.763l-.02 3.932h3.714l.24-2.1h2.094l-.24 3.905h-9.867v-1.806h.007zM28.61 6.116c-.26-1.4-1.098-2.094-1.847-2.368-.81-.295-2.465-.597-4.538-.844-1.67-.2-3.625-.18-4.813-.144-.144-.975-.824-1.86-1.586-2.17C13.794-.224 10.65-.025 9.84.194c-.64.18-1.354.55-1.745 1.112-.268.377-.44.865-.44 1.537 0 .384.014 1.283.02 2.086.008.803.022 1.524.022 1.53 0 .714-.584 1.298-1.298 1.298H3.096c-.708 0-1.243.116-1.655.302-.412.185-.7.44-.927.734-.44.59-.515 1.324-.515 2.065 0 0 .007.61.15 1.785.125.912 1.113 7.28 2.054 9.216.364.755.604 1.064 1.325 1.4 1.592.68 5.23 1.44 6.94 1.66 1.703.22 2.774.673 3.413-.658 0 0 .13-.33.302-.817.556-1.674.632-3.164.632-4.24 0-.11.158-.118.158 0 0 .76-.145 3.444 1.888 4.165.803.28 2.464.535 4.153.734 1.532.178 2.637.775 2.637 4.694 0 2.38-.5 2.71-3.117 2.71-2.122 0-2.932.055-2.932-1.633 0-1.366 1.346-1.22 2.348-1.22.447 0 .124-.33.124-1.175 0-.837.522-1.317.027-1.33-3.453-.097-5.486-.008-5.486 4.315 0 3.92 1.504 4.653 6.406 4.653 3.845 0 5.198-.124 6.79-5.05.317-.975 1.072-3.94 1.532-8.922.274-3.122-.29-12.627-.735-15.028zm-6.7 10.506c-.475-.014-.935.014-1.36.082.116-.967.52-2.155 1.936-2.107 1.565.055 1.785 1.538 1.792 2.54-.66-.296-1.483-.48-2.37-.515zM2.94 6.81h3.3c.193 0 .344-.152.344-.345 0 0-.04-2.827-.04-3.616V2.84c0-.645.137-1.208.37-1.68l.11-.214c-.014 0-.028.007-.04.02L.57 7.324c-.014.014-.02.02-.02.035.13-.07.315-.158.336-.165.563-.247 1.242-.384 2.053-.384z"/>
  </g>
</svg>
