<svg xmlns="http://www.w3.org/2000/svg" width="79" height="35"><path fill="#FFF" fill-rule="evenodd" d="M67 22.2C38.3 20 14.6 27 9 29.6c-2.8 1.4-3 3-2.7 4 .4 1 1.8 1.3 3.4.4C21 28 44.2 23 67 24.3c1 0 1.6-2 0-2zm7.2-8.7c-1.2 1.4-3 2.5-3.5 2-.6-.6 0-2.2 0-2.2 2.8-1.7 8.3-6.5 8.3-10s-3-4.5-6-1.4c-2.3 2-4.4 5.8-5.5 9.8-1.7 1.6-4.2 3.7-6.5 3.7-1.2 0-1.6-1-1.5-2 2 0 7.5-1.7 7.5-6.3 0-2-1.7-2.7-3-2.7-2.5 0-5.7 2.5-7.3 6.2-.4 0-.8-.3-1.2-.5.5-1 1-2 1-2.8.2-1.8-.5-3-2-3-1 0-2.2 1-2.5 3-.2 1.4.6 3 .6 3-.7 2-3.4 4.8-4.4 4.8-.8 0 .2-4 1-6.8.7-.6 1.2-1.2 1.3-1.8.3-1 0-1.4-.4-1.6-.6-.5-2.5-.3-3.5 1.5l-1 2.2c-.8 1-2 2.2-2.3 2-.6-.4 1-2.7 1-4C44 5.3 43 4.6 42 5c-1.5.2-3.5 3.2-3.5 3.2s.4-1 .4-1.7c-.2-1-2.3-1.7-3.3.5-.4.7-1 3.4-1.6 6-.4 1-2 3.7-3.3 3.8-1 .2.2-5 .4-5 .6-1 1.4-3 1.3-4 0-1-.8-1.4-1.6-1.2C29.7 6.8 29 8 29 8s-.6-1-2-1c-4.6.6-7.5 8.5-7 12.4 0 2 1 3.3 2.7 3 2 0 3.7-3 3.7-3s.4 2.3 2.5 2c1.4-.3 2.8-1.5 4-3v.6c-.4 2 3 2 3 .2 1.2-7.5 3.7-10.7 4.5-10.7.6 0-1.7 3.6-.3 5 1 1.2 2.7.2 4-1l-.3 3c0 2.2.7 4 2.8 3.8 2.7 0 5.6-3.5 7.5-6.8.5.3 1 .6 1.7.7-.2.8-.2 1.6-.2 2.4.2 2.6 2 3.5 4 3.4 2.2 0 5-1.8 6.8-3.4v.2c0 1.2 0 3.5 1.7 3.6 2 .2 5.5-1.8 7.2-4 1.2-1.6-.3-3-1.3-2zM76 3c.2 0 .3.2.3.5 0 2.2-5.3 6.7-5.3 6.7s3.5-7 5-7zm-48.4 8c-.2 1.3-2.4 7-3.6 7-1.5 0 .8-8 3.3-8 .4 0 .4.3.3 1zm35.6-3.3c.5 0 .7.2.7.7 0 1-1.7 2-3.5 2.2.8-1.6 2-3 2.7-3zm-55 5c1.5 0-1.2 7.6-1 11 .4 3.3 4.2 2.4 4 .4-.5-3.2 1.7-13.6 4-13.6 1.6 0-1.8 7.2-1 11.8.3 3 4.3 2 4 .2-1.5-6 2.6-11.7 2.2-15.8C20.2 5 19 4 18 4c-3.7 0-6.6 7.6-6.6 7.6s.3-4.3-2.6-4.5C4.3 7-.2 18 0 28c0 3 4 2.5 3.8 0-.4-4.7 2.2-15.4 4.4-15.4z" opacity=".2"/></svg>