<svg xmlns="http://www.w3.org/2000/svg" width="56" height="234">
  <g fill="none" fill-rule="evenodd">
    <path fill="#E0E7ED" d="M4.85 189.738v10.957h45.317v-10.957c0-1.657-1.343-3-3-3H7.85c-1.657 0-3 1.343-3 3"/>
    <path fill="#43484D" d="M47.15 232.307H7.85c-1.186 0-2.15-.96-2.15-2.14V201.68h43.6v28.484c0 1.18-.963 2.14-2.15 2.14zM5.7 189.925c0-1.18.964-2.14 2.15-2.14h39.3c1.187 0 2.15.96 2.15 2.14v10.065H5.7v-10.065zM47.15 186H7.85C5.725 186 4 187.72 4 189.834v40.332C4 232.28 5.726 234 7.85 234h39.3c2.124 0 3.85-1.72 3.85-3.834v-40.332c0-2.114-1.726-3.834-3.85-3.834z"/>
    <path fill="#43484D" d="M21.753 212.32c-.332-.33-.87-.33-1.202 0l-4.66 4.666c-.33.332-.33.87 0 1.202l4.67 4.665c.17.166.39.25.6.25.22 0 .44-.084.6-.25.34-.332.34-.87 0-1.202l-4.06-4.06 4.07-4.06c.33-.33.33-.87 0-1.2m10.85 0c-.33-.33-.87-.33-1.2 0-.33.34-.33.87 0 1.21l4.07 4.07-4.06 4.07c-.33.335-.33.87 0 1.205.166.166.38.25.6.25.217 0 .435-.084.6-.25l4.668-4.665c.16-.16.25-.376.25-.6 0-.227-.09-.444-.25-.603l-4.667-4.66zm-3.64-2.94c-.44-.14-.92.11-1.06.56l-4.24 13.55c-.14.45.107.93.555 1.07.083.03.17.04.253.04.36 0 .698-.23.81-.59l4.24-13.552c.14-.444-.11-.92-.56-1.06M14.3 193.73c0 1.057-.856 1.914-1.913 1.914-1.06 0-1.915-.855-1.915-1.91s.86-1.916 1.92-1.916 1.913.852 1.913 1.91"/>
    <path fill="#43484D" d="M20.293 193.717c0 1.057-.857 1.914-1.914 1.914-1.06 0-1.92-.85-1.92-1.91s.85-1.91 1.91-1.91c1.05 0 1.91.86 1.91 1.92m6 0c0 1.06-.86 1.92-1.92 1.92s-1.92-.85-1.92-1.91.85-1.91 1.91-1.91c1.05 0 1.91.86 1.91 1.92" opacity=".3"/>
    <path fill="#43484D" fill-opacity=".3" d="M15.07 106.717h-3.906c-.466 0-.844-.385-.844-.858 0-.48.378-.86.844-.86h3.907c.47 0 .85.38.85.86 0 .47-.38.85-.84.85zm7.816 0h-3.908c-.465 0-.843-.385-.843-.858 0-.48.378-.86.843-.86h3.908c.465 0 .843.38.843.86 0 .47-.38.85-.85.85zm7.816 0h-3.91c-.464 0-.84-.385-.84-.858 0-.48.376-.86.84-.86h3.91c.465 0 .842.38.842.86 0 .47-.377.85-.842.85zm15.63 0h-3.908c-.465 0-.843-.385-.843-.858 0-.48.38-.86.85-.86h3.91c.47 0 .85.38.85.86 0 .47-.38.85-.84.85zM3.84 108.38c-.186 0-.376-.065-.53-.196-.362-.3-.415-.84-.12-1.208 1-1.247 2.48-1.967 4.06-1.976.486.005.844.38.846.854.003.474-.373.86-.838.863-1.074.006-2.082.497-2.765 1.347-.165.207-.408.315-.652.315zm49.05 1.315c-.345 0-.668-.217-.793-.566-.367-1.03-1.16-1.84-2.174-2.21-.438-.16-.667-.65-.51-1.1.155-.45.64-.68 1.076-.52 1.48.54 2.65 1.72 3.19 3.23.16.44-.07.93-.51 1.1-.1.03-.2.05-.29.05zm-50.05 6.408c-.464 0-.842-.385-.842-.86v-3.98c0-.474.378-.86.843-.86.47 0 .85.386.85.86v3.98c0 .475-.37.86-.84.86zm50.315 1.523c-.465 0-.842-.385-.842-.858v-3.982c0-.474.377-.86.842-.86.465 0 .843.386.843.86v3.982c0 .473-.378.858-.843.858zm-50.314 6.44c-.46 0-.84-.385-.84-.86v-3.98c0-.474.38-.86.85-.86s.85.386.85.86v3.98c0 .475-.37.86-.84.86zm50.32 1.523c-.46 0-.84-.39-.84-.86v-3.99c0-.48.38-.86.84-.86.47 0 .85.38.85.85v3.98c0 .47-.38.86-.84.86zm-50.06 6.4c-.34 0-.67-.22-.79-.57-.2-.58-.3-1.19-.3-1.81v-2.43c0-.48.38-.86.85-.86s.84.38.84.86v2.43c0 .42.07.84.21 1.23.16.44-.07.93-.51 1.09-.09.03-.182.05-.28.05zm49.08 1.32c-.18 0-.37-.06-.53-.19-.36-.3-.42-.84-.12-1.21.52-.66.8-1.46.8-2.3v-.91c0-.48.38-.86.85-.86.464 0 .84.38.84.85v.91c0 1.22-.413 2.43-1.17 3.38-.166.21-.41.32-.655.32zM9.65 135H7.29c-.62 0-1.23-.108-1.81-.322-.44-.162-.67-.655-.51-1.1.16-.447.64-.675 1.08-.514.39.145.8.22 1.22.22h2.37c.466 0 .843.384.843.857 0 .48-.374.86-.84.86zm7.81 0h-3.91c-.464 0-.842-.385-.842-.86 0-.472.378-.857.843-.857h3.91c.47 0 .85.385.85.858 0 .48-.37.86-.84.86zm7.816 0h-3.908c-.466 0-.842-.385-.842-.86 0-.472.376-.857.842-.857h3.908c.465 0 .842.385.842.858 0 .48-.377.86-.842.86zm7.815 0h-3.91c-.47 0-.85-.385-.85-.86 0-.472.38-.857.84-.857h3.91c.46 0 .84.385.84.858 0 .48-.38.86-.84.86zm11.72 0c-.47 0-.85-.385-.85-.86 0-.472.38-.857.84-.857h3.91c.47 0 .87.384.87.858 0 .48-.35.86-.812.86v-.86l-.025.86H44.8z"/>
    <path fill="#E0E7ED" d="M24.92 134.043H14.17V105.63h10.75"/>
    <path fill="#FEFEFE" d="M31.896 99.043h3.273m-3.28 14h3.27m-3.28-7h6.27m-6.28 14h6.27m-6.276 7h3.272m-3.277 7h6.272"/>
    <path fill="#43484D" d="M42.34 136.106c0 1.215-.972 2.203-2.165 2.203h-5.902c-.89 0-1.612-.74-1.612-1.65v-1.88h5.3c.46 0 .83-.38.83-.85s-.37-.85-.83-.85h-5.3v-5.27h2.37c.46 0 .83-.38.83-.85s-.37-.85-.83-.85h-2.37v-5.27h5.3c.46 0 .83-.38.83-.846 0-.47-.37-.847-.83-.847h-5.3v-5.27h2.37c.46 0 .83-.38.83-.85 0-.466-.37-.844-.83-.844h-2.37v-5.27h5.3c.46 0 .83-.38.83-.843 0-.47-.37-.843-.83-.843h-5.3v-5.27h2.37c.46 0 .83-.38.83-.846 0-.47-.37-.846-.83-.846h-2.37v-2.96c0-.904.73-1.64 1.62-1.64h6.46c.89 0 1.61.736 1.61 1.64v40.78zM40.726 92h-6.454C32.468 92 31 93.495 31 95.33v41.338c0 1.838 1.468 3.332 3.273 3.332h5.902c2.11 0 3.825-1.747 3.825-3.894V95.33c0-1.835-1.468-3.33-3.273-3.33z"/>
    <path fill="#FEFEFE" d="M14.92 105.63h9.25m-10 28.412h10.75m-5.375-28.412v27.746m0-34.264v-2.57"/>
    <path fill="#43484D" d="M20.677 138.317h-3.354c-1.48 0-2.684-1.237-2.684-2.757v-.747h8.72v.747c0 1.52-1.21 2.757-2.69 2.757zm-2.49-37.644c.184-.283.48-.445.813-.445.332 0 .63.162.814.445l2.828 4.325h-7.285l2.83-4.325zm1.632 6.008h3.52c.01.1.02.2.02.29v26.16h-3.54v-26.45zm-5.18.29c0-.09.01-.19.02-.29h3.52v26.45h-3.54v-26.16zm9.6-2.53l-3.07-4.7c-.33-.5-.81-.85-1.36-1.04v-1.85c0-.46-.37-.84-.82-.84-.45 0-.82.38-.82.85v1.85c-.55.19-1.03.54-1.36 1.04l-3.07 4.7c-.5.76-.76 1.63-.76 2.54v28.59c0 2.45 1.94 4.44 4.32 4.44h3.354c2.384 0 4.323-1.99 4.323-4.44v-28.59c0-.902-.26-1.78-.756-2.532z"/>
    <path fill="#43484D" d="M3.437 27.156c-.083 0-.168-.012-.252-.038l-2.558-.794c-.448-.14-.7-.615-.558-1.064.13-.447.61-.698 1.06-.56l2.55.794c.45.14.7.616.56 1.064-.12.364-.45.598-.81.598m7.64 2.37c-.09 0-.17-.01-.25-.037L7 28.3c-.447-.14-.7-.618-.56-1.067.14-.448.616-.698 1.065-.56l3.82 1.185c.447.14.698.616.56 1.064-.115.363-.45.597-.813.597m37.132-1.37c-.074 0-.148-.01-.223-.03l-3.86-1.05c-.45-.13-.72-.59-.6-1.05.13-.46.6-.72 1.05-.6l3.86 1.04c.46.12.72.586.6 1.04-.1.38-.44.63-.82.63m6.45 1.75c-.07 0-.14-.01-.22-.03l-2.58-.7c-.45-.125-.72-.59-.6-1.045.13-.45.6-.72 1.05-.597l2.58.7c.453.12.72.59.6 1.04-.104.38-.447.63-.82.63" opacity=".3"/>
    <path fill="#E0E7ED" d="M34.096 1.623H13.56c-1.656 0-3 1.343-3 3v36.492c0 1.657 1.344 3 3 3h28.955c1.657 0 3-1.343 3-3v-27.82"/>
    <path fill="#43484D" d="M42.516 44.966H13.562c-2.123 0-3.85-1.727-3.85-3.85V4.623c0-2.123 1.727-3.85 3.85-3.85h20.535c.47 0 .85.38.85.85s-.38.85-.85.85H13.562c-1.186 0-2.15.965-2.15 2.15v36.493c0 1.185.964 2.15 2.15 2.15h28.954c1.186 0 2.15-.965 2.15-2.15v-27.82c0-.47.38-.85.85-.85s.85.38.85.85v27.82c0 2.123-1.727 3.85-3.85 3.85"/>
    <path fill="#FEFEFE" d="M34.096 1.623v9.173c0 1.38 1.12 2.5 2.5 2.5h8.92L34.096 1.623z"/>
    <path fill="#43484D" d="M34.946 3.708v7.088c0 .91.74 1.65 1.65 1.65h6.9l-8.55-8.74zm10.57 10.438h-8.92c-1.847 0-3.35-1.503-3.35-3.35V1.624c0-.347.21-.658.53-.79.32-.128.687-.052.928.195l11.42 11.67c.238.24.307.6.175.92-.14.31-.45.52-.79.52zM20.3 32.536c-.082 0-.165-.012-.246-.037l-9.74-2.97c-.45-.14-.702-.61-.566-1.06.138-.45.615-.71 1.06-.57l9.29 2.83 10.387-9.01c.213-.19.504-.26.78-.18l14.474 3.94c.45.12.72.59.59 1.04-.13.45-.59.71-1.05.59L31.24 23.3l-10.39 9.02c-.157.137-.355.21-.557.21"/>
    <path fill="#FEFEFE" d="M22.59 29.864c.992 1.045.95 2.696-.095 3.69-1.044.99-2.696.95-3.688-.096-.992-1.045-.95-2.696.095-3.69 1.044-.99 2.697-.95 3.688.096"/>
    <path fill="#43484D" d="M20.698 29.902c-.453 0-.883.172-1.212.483-.702.67-.73 1.785-.062 2.488.645.68 1.804.71 2.487.064.71-.668.74-1.784.07-2.488-.33-.36-.79-.55-1.27-.55m0 5.22c-.94 0-1.85-.4-2.5-1.08-1.31-1.39-1.25-3.58.13-4.89 1.33-1.27 3.63-1.21 4.898.12 1.31 1.38 1.256 3.58-.127 4.89-.647.61-1.49.95-2.38.95"/>
    <path fill="#FEFEFE" d="M32.863 20.572c.992 1.045.95 2.696-.095 3.69-1.044.99-2.696.95-3.688-.096-.993-1.045-.95-2.696.094-3.69 1.045-.99 2.697-.95 3.69.096"/>
    <path fill="#43484D" d="M30.972 20.61c-.453 0-.883.17-1.21.483-.343.324-.537.76-.55 1.23-.01.47.16.917.485 1.258.646.69 1.804.72 2.487.07.703-.67.73-1.78.063-2.48-.335-.35-.788-.54-1.275-.54m0 5.22c-.944 0-1.858-.39-2.508-1.07-.637-.67-.974-1.55-.95-2.47.023-.92.405-1.78 1.076-2.42 1.327-1.26 3.628-1.2 4.89.13 1.313 1.385 1.257 3.58-.126 4.89-.646.615-1.49.953-2.382.953"/>
  </g>
</svg>
