<svg xmlns="http://www.w3.org/2000/svg" width="458" height="30">
  <g fill="#FFF" fill-rule="evenodd">
    <path d="M394 17.4l-1 5.3h-4l4.8-22h4.8l4.4 22h-4l-1-5.3h-4zm3.7-3l-.8-5c-.4-1.3-.6-3.5-1-5-.2 1.6-.5 3.8-.8 5l-.8 5h3.3zm18-14.4v18l.2 4.7h-3.5l-.2-1.8c-.7 1-2 2-3.4 2-3.4 0-5-3.6-5-8.2 0-5.7 2.4-8.4 5-8.4 1.4 0 2.3.7 2.8 1.7V0h4zm-4 12.8v-1c0-1-.7-2-1.6-2-1.5 0-2 2.3-2 5 0 3 .7 5 2 5 .6 0 1.3-.4 1.7-1.7V13zM424 23c-3.6 0-6-3-6-8.2 0-5.8 3-8.4 6-8.4 3.7 0 6 3 6 8.3 0 6.6-3.5 8.3-6 8.3zm0-3c1.6 0 2-3 2-5.3s-.4-5.2-2-5.2-2 3-2 5.2c0 2.7.4 5.2 2 5.2zm8.2-20h4v8.4c1-1.3 2-2 3.4-2 3 0 4.5 3.4 4.5 8 0 5.6-2 8.6-5 8.6-1.4 0-2.3-.6-3.2-2.2l-.3 2H432c.2-1.4.2-3.2.2-4.7V0zm4 17c0 .4 0 .8.2 1 .4 1.4 1 1.7 1.6 1.7 1.5 0 2.2-2 2.2-5s-.7-5-2.2-5c-.8 0-1.4 1-1.6 1.8l-.2 1V17zm13.5-1c0 3 1.5 4 3.4 4 1.3 0 2.4-.4 3-.7l.6 3c-1 .3-2.6.6-4.2.6-4.3 0-6.6-3-6.6-8 0-5.4 2.7-8.6 6.2-8.6 3.4 0 5.3 2.8 5.3 7.5v2h-7.6zm4-2.8c0-2.3-.7-4-2-4-1.4 0-2 2.3-2 4h4zM365 8.5l6 14.5h-4l-1.8-4.6h-4.4l4.2-10zM361.6 0H352v23l9.6-23zm6.7 0h9.6v23l-9.7-23zM288 24.4c1.2 0 2.5.2 4 .4l2.8-7.3 2.8 8c1.4 0 3 .3 4.3.5l-5-14 5-12h-4.3L295 6.7 292.7 0h-4l4 12-4.8 12.4zm-3.3-.3V0h-4v23.7c1.3 0 2.7.2 4 .4zM254 22.8h3.3V14h5v-4h-5V4h5.7V0h-9.8v22.7h.8zm-12.7.3c1.3 0 2.7 0 4-.2v-19h4V0h-12v3.8h4V23zM210 25.5V11.2l4.8 13.7 4.5-.6V0h-4v14.8L210 0h-4v26l4-.5zm23.5-21.7V0h-9.8v24l9.8-.7v-3.7c-2 0-3.8.2-5.7.3v-6h5v-4h-5V4h5.7zM271 19.4V0h-4v23c3.2 0 6.5.2 9.8.5v-3.8c-2 0-3.8-.2-5.7-.3zM0 15c0 8.3 6.7 15 15 15 8.2 0 15-6.8 15-15 0-8.3-6.8-15-15-15C6.8 0 0 6.7 0 15zM10.6 3.4l4.5 15 4.6-15 5.7 19h-1s-.2-1-.6-1.8c-1.2-4.3-3-6-5.4-5-.6.2-1.5 1-2 1.8-.4.7-1 2-1.2 3-.2-1-.8-2.3-1.2-3-.5-.8-1.4-1.6-2-1.8-2.5-1-4.2.7-5.4 5l-.7 2h-1l6-19.2zm55.8 6.5c-.8 0-1.7 0-2.4.3-2.5.6-5.4 2.4-6 5.2 0 1.6.6 3 2 3.8 1.7 1 3.7 1.3 5.8 1.2 1.5 0 3-.5 4.4-1.2 1.3-.8 2.4-2 3-3.5.4-1 .3-2.2-.2-3-1.7-2-4-2.7-6.6-2.7zm27.5 0c-1 0-1.8 0-2.6.3-2.4.6-5.3 2.4-6 5.2 0 1.6.7 3 2 3.8 1.7 1 3.8 1.3 6 1.2 1.4 0 3-.5 4.2-1.2 1.4-.8 2.5-2 3-3.5.4-1 .4-2.2-.2-3-1.6-2-4-2.7-6.5-2.7zm29.7 0c-.8 0-1.7 0-2.5.3-2.4.6-5.3 2.4-6 5.2 0 1.6.7 3 2 3.8 1.7 1 3.8 1.3 6 1.2 1.4 0 3-.5 4.2-1.2 1.4-.8 2.5-2 3-3.5.5-1 .4-2.2-.2-3-1.6-2-4-2.7-6.5-2.7zM43 9.8l-2.8 10.3h3.3L45 15v-.2h.2l1.2 5.5h2.2L53 15 51.4 20h4l3-10h-5.6l-3.6 4.3-1-4.4H43zm31.5 0l-1 3.4h4c.3 0 .3 0 .3.2L76 20h4l2-6.8h4.2l.7-3.3H74.4zm28.7 0l-2.5 10.3h3.8l.7-3h3.3c.5 0 .7.4.8 1l-.2 1v.6l.6.5h4.5c0-.2-.4-.5-.4-1 0-.6.3-1.4.2-2.2-.2-.6-.8-1-1.3-1v-.3c1-.4 2.2-1 2.7-2.3.3-.7.2-1.8-.5-2.3-.5-.7-1.3-1-2-1h-9.5zm29.8 0l-2.3 10.3h10l.7-3h-6l1.7-7h-4zm15 0l-6.4 10.3h3.4l1-1.8h5l.3 2h4.2l-2.3-10.3h-5zm-81.6 2.6c.7 0 1.4.2 2 .5l.7.8c.2 1-.2 2-1.2 2.8-1 1-2.6 1.3-4 .7-.5-.2-1-.7-1-1.3-.2-1.2.5-2.4 1.6-3 .6-.4 1.3-.6 2-.6zm27.7 0c.7 0 1.5.2 2 .5l.7.8c.2 1-.3 2-1.2 2.8-1 1-2.6 1.3-4 .7-.5-.2-1-.7-1.2-1.3 0-1.2.6-2.4 1.7-3 .6-.4 1.3-.6 2-.6zm29.7 0c.7 0 1.4.2 2 .5l.7.8c0 1-.4 2-1.3 2.8-1 1-2.5 1.3-4 .7-.4-.2-1-.7-1-1.3 0-1.2.6-2.4 1.7-3 .6-.4 1.3-.6 2-.6zm-15.5.2h2.3c.3 0 .5.2.6.5.2.3 0 .6-.2.8-.2.3-.5.5-1 .5H106l.5-1.7h1.7zm41.3.6l.6 2.5H148l1.7-2.5z"/>
  </g>
</svg>
