<svg xmlns="http://www.w3.org/2000/svg" width="156" height="30"><path fill="#FFF" fill-rule="evenodd" d="M0 15.08C0 23.28 6.7 30 15.06 30c8.2 0 14.9-6.8 14.9-14.92C29.96 6.72 23.26 0 15.06 0 6.7 0 0 6.72 0 15.08zM10.56 3.26l4.5 14.93 4.5-14.94 5.74 19.12h-.93s-.3-.97-.62-1.86c-1.27-4.28-2.93-5.95-5.43-4.98-.6.16-1.5.97-2.02 1.7-.4.8-1.04 1.98-1.24 2.97-.22-.98-.87-2.17-1.24-2.95-.55-.74-1.43-1.55-2.02-1.7-2.5-.98-4.2.7-5.44 4.97-.32.9-.64 1.86-.62 1.86H4.8l5.76-19.12zM66.44 9.8c-.86 0-1.7.1-2.5.3-2.44.52-5.34 2.35-5.9 5.13-.2 1.54.6 2.92 1.88 3.73 1.74 1.03 3.82 1.32 5.9 1.25 1.5-.15 3.04-.54 4.34-1.24 1.34-.75 2.43-1.8 2.95-3.42.46-.9.42-2.25-.14-3.1-1.65-2.04-4.08-2.7-6.52-2.65zm27.47 0c-.85 0-1.67.1-2.47.3-2.46.52-5.35 2.35-5.9 5.13-.2 1.54.57 2.92 1.86 3.73 1.73 1.03 3.8 1.32 5.9 1.25 1.48-.15 3.03-.54 4.34-1.24 1.33-.75 2.4-1.8 2.95-3.42.45-.9.4-2.25-.17-3.1-1.63-2.04-4.1-2.7-6.52-2.65zm29.82 0c-.86 0-1.7.1-2.5.3-2.45.52-5.35 2.35-5.9 5.13-.18 1.54.58 2.92 1.88 3.73 1.73 1.03 3.8 1.32 5.9 1.25 1.5-.15 3.03-.54 4.34-1.24 1.33-.75 2.42-1.8 2.95-3.42.45-.9.4-2.25-.16-3.1-1.64-2.04-4.1-2.7-6.52-2.65zM43 9.94l-2.8 10.1h3.26s1.47-5.25 1.56-5.28c-.03-.17.04-.2 0-.16.07-.04.1 0 .15 0l1.24 5.45h2.2l4.33-5.28c.02-.03.06-.05 0 0l-1.4 5.28h4.04l2.8-10.1h-5.44l-3.57 4.35-1.08-4.35H43zm31.5 0l-.92 3.26h4.03c.16-.03.22.06.17.17l-1.7 6.68h3.87l2.02-6.84v-.14h4.2l.77-3.1H74.5zm28.73 0c-.84 3.32-1.7 6.74-2.5 10.1h3.74l.77-2.95h3.26c.5-.03.7.34.78.78l-.16 1.24c-.05.23-.02.4 0 .47.13.27.32.4.47.45h4.5c-.23-.22-.52-.54-.47-.93 0-.72.3-1.5.15-2.33-.16-.56-.76-.9-1.24-1.1-.1-.08 0-.12 0-.16 1.07-.4 2.2-1.15 2.64-2.33.3-.7.2-1.76-.47-2.32-.46-.57-1.26-.93-2-.93h-9.46zm29.8 0l-2.33 10.1h10.1l.6-2.95h-5.9c0 .04-.04-.04 0-.16l1.57-7h-4.04zm15.06 0l-6.53 10.1h3.4l1.1-1.86h4.8c-.02.05 0 .08 0 .14l.48 1.7h4.2l-2.34-10.1h-5.1zm-81.66 2.5c.68 0 1.4.16 1.86.45.35.26.6.57.78.93.16 1.04-.32 2.05-1.25 2.8-1 .84-2.6 1.23-4.03.62-.46-.14-1-.63-1.1-1.24-.07-1.24.6-2.45 1.72-3.1.57-.3 1.3-.48 2.02-.46zm27.63 0c.67 0 1.4.16 1.86.45.34.26.6.57.78.93.17 1.04-.33 2.05-1.24 2.8-1 .84-2.6 1.23-4.03.62-.47-.14-1-.63-1.1-1.24-.1-1.24.58-2.45 1.72-3.1.56-.3 1.28-.48 2.02-.46zm29.65 0c.68 0 1.4.16 1.86.45.36.26.6.57.77.93.18 1.04-.32 2.05-1.24 2.8-1 .84-2.58 1.23-4.02.62-.46-.14-1-.63-1.1-1.24-.06-1.24.6-2.45 1.72-3.1.58-.3 1.3-.48 2.02-.46zm-15.53.14h2.32c.23 0 .48.17.62.46.07.24-.03.57-.3.77-.26.3-.52.43-.94.47h-3.88l.47-1.7h1.7zm41.28.6s.03 0 0 0l.62 2.5h-2.32l1.7-2.5z" opacity=".2"/></svg>