<svg xmlns="http://www.w3.org/2000/svg" width="96" height="26"><path fill="#FFF" fill-rule="evenodd" d="M82 24.4c1.2 0 2.5.2 4 .4l2.8-7.3 2.8 8c1.4 0 3 .3 4.3.5l-5-14 5-12h-4.3L89 6.7 86.7 0h-4l4 12L82 24.4zm-3.3-.3V0h-4v23.7c1.3 0 2.7.2 4 .4zM48 22.8h3.3V14h5v-4h-5V4H57V0h-9.8v22.7h.8zm-12.7.3c1.3 0 2.7 0 4-.2v-19h4V0h-12v3.8h4V23zM4 25.5V11.2L8.7 25l4.5-.6V0h-4v14.8L4 0H0v26l4-.5zM27.4 3.8V0h-9.8v24l9.8-.7v-3.7c-2 0-3.8.2-5.7.3v-6h5v-4h-5V4h5.7zM65 19.4V0h-4v23c3.2 0 6.5.2 9.8.5v-3.8c-2 0-3.8-.2-5.7-.3z" opacity=".2"/></svg>