<svg xmlns="http://www.w3.org/2000/svg" width="56" height="234">
  <g fill="none" fill-rule="evenodd">
    <path fill="#E0E7ED" d="M4.85 189.74v10.95h45.32v-11c0-1.7-1.35-3-3-3H7.85c-1.66 0-3 1.3-3 3"/>
    <path fill="#43484D" d="M47.15 232.3H7.85c-1.2 0-2.15-.95-2.15-2.13v-28.5h43.6v28.5c0 1.17-.96 2.13-2.15 2.13zM5.7 189.93c0-1.17.96-2.13 2.15-2.13l39.3-.02c1.2 0 2.15.97 2.15 2.15V200H5.7v-10.07zM47.15 186H7.85C5.72 186 4 187.72 4 189.83v40.34c0 2.1 1.73 3.83 3.85 3.83h39.3c2.12 0 3.85-1.72 3.85-3.83v-40.34c0-2.1-1.73-3.83-3.85-3.83z"/>
    <path fill="#43484D" d="M21.75 212.32c-.33-.33-.87-.33-1.2 0L15.9 217c-.34.32-.34.86 0 1.2l4.66 4.65c.17.17.4.25.6.25.22 0 .44-.08.6-.25.34-.33.34-.87 0-1.2l-4.06-4.06 4.07-4.1c.33-.4.33-.9 0-1.2h-.02zm10.87 0c-.33-.32-.87-.32-1.2 0-.33.35-.33.88 0 1.22l4.07 4.07-4.1 4.1c-.4.4-.4.9 0 1.2.1.2.4.3.6.3.2 0 .4-.1.6-.2l4.6-4.6c.1-.1.2-.4.2-.6 0-.2-.1-.4-.3-.6l-4.7-4.6zm-3.64-2.93c-.44-.2-.92.1-1.06.5l-4.24 13.5c-.14.4.1.9.56 1h.25c.3 0 .7-.2.8-.6l4.2-13.6c.1-.4-.1-.9-.6-1.1zM14.3 193.7c0 1.06-.86 1.9-1.9 1.9-1.07 0-1.93-.84-1.93-1.9 0-1.05.86-1.9 1.92-1.9 1 0 1.9.84 1.9 1.9z"/>
    <path fill="#43484D" d="M20.3 193.72c0 1.05-.86 1.9-1.92 1.9s-1.92-.84-1.92-1.9.85-1.9 1.9-1.9c1.06 0 1.92.85 1.92 1.9m6 0c0 1.07-.86 1.93-1.92 1.93s-1.92-.85-1.92-1.9c0-1.07.85-1.92 1.9-1.92 1.06 0 1.92.86 1.92 1.92" opacity=".3"/>
    <path fill="#43484D" fill-opacity=".3" d="M15.07 106.72h-3.9c-.47 0-.85-.4-.85-.86 0-.48.38-.86.84-.86h3.9c.48 0 .86.38.86.86 0 .47-.38.85-.84.85v.1zm7.82 0h-4c-.5 0-.9-.4-.9-.86 0-.48.3-.86.8-.86h3.9c.4 0 .8.38.8.86 0 .47-.4.85-.9.85v.1zm7.8 0h-3.9c-.5 0-.9-.4-.9-.86 0-.48.4-.86.8-.86h3.9c.4 0 .8.38.8.86 0 .47-.4.85-.9.85v.1zm15.6 0h-3.9c-.5 0-.9-.4-.9-.86 0-.48.4-.86.8-.86h3.9c.5 0 .8.38.8.86 0 .47-.4.85-.9.85v.1zm-42.5 1.66c-.2 0-.4-.06-.5-.2-.4-.3-.4-.84-.1-1.2 1-1.25 2.4-1.97 4-1.98.5 0 .8.38.8.85 0 .48-.4.86-.9.87-1.1 0-2.1.5-2.8 1.34-.2.2-.5.32-.7.32zm49 1.3c-.4 0-.7-.2-.8-.55-.4-1.03-1.2-1.84-2.2-2.2-.5-.17-.7-.66-.5-1.1.1-.46.6-.7 1-.53 1.4.54 2.6 1.72 3.2 3.23.1.44-.1.93-.5 1.1-.1.03-.2.05-.3.05zm-50 6.42c-.5 0-.9-.38-.9-.86v-3.98c0-.47.4-.86.8-.86s.8.4.8.86v3.98c0 .48-.4.86-.9.86zm50.3 1.53c-.5 0-.9-.4-.9-.86v-3.98c0-.5.4-.9.8-.9s.8.4.8.8v3.9c0 .4-.4.8-.9.8zm-50.3 6.44c-.5 0-.9-.4-.9-.86v-3.9c0-.5.4-.8.8-.8s.8.4.8.9v4c0 .5-.4.9-.9.9zm50.3 1.52c-.5 0-.9-.4-.9-.9v-4c0-.5.3-.9.8-.9.4 0 .8.4.8.8v4c0 .4-.4.8-.9.8zm-50 6.4c-.4 0-.7-.3-.8-.6-.2-.6-.3-1.2-.3-1.8v-2.5c0-.5.4-.9.8-.9s.8.4.8.8v2.4c0 .5 0 .9.2 1.3.1.4-.1.9-.5 1.1H3zm49 1.3c-.2 0-.4-.1-.6-.2-.4-.3-.4-.9-.1-1.2.5-.7.8-1.5.8-2.3v-.9c0-.5.4-.9.8-.9s.8.4.8.8v.9c0 1.2-.4 2.4-1.2 3.3-.18.2-.4.3-.67.3zM9.6 135H7.3c-.63 0-1.24-.1-1.82-.32-.44-.16-.67-.66-.5-1.1.15-.45.63-.68 1.07-.52.4.15.8.22 1.22.22h2.37c.47 0 .84.4.84.86 0 .48-.37.86-.84.86zm7.8 0h-3.9c-.43 0-.8-.38-.8-.86 0-.47.4-.86.9-.86h3.9c.5 0 .9.4.9.86 0 .48-.33.86-.8.86zm7.86 0h-3.9c-.5 0-.86-.38-.86-.86 0-.47.37-.86.84-.86h3.9c.47 0 .85.4.85.86 0 .48-.4.86-.9.86zm7.8 0h-3.9c-.48 0-.86-.38-.86-.86 0-.47.38-.86.84-.86h3.9c.47 0 .85.4.85.86 0 .48-.4.86-.9.86zm11.72 0c-.4 0-.8-.38-.8-.86 0-.47.4-.86.9-.86h3.9c.5 0 .9.4.9.86 0 .48-.3.86-.8.86v-.86.86h-4z"/>
    <path fill="#E0E7ED" d="M24.92 134.04H14.17v-28.4h10.75"/>
    <path fill="#FEFEFE" d="M31.9 99.04h3.27m-3.28 14h3.2m-3.3-7H38m-6.28 14H38m-6.27 7H35m-3.26 7H38"/>
    <path fill="#43484D" d="M42.34 136.1c0 1.22-.97 2.2-2.17 2.2h-5.9c-.9 0-1.6-.73-1.6-1.64v-1.88h5.3c.45 0 .82-.38.82-.85s-.4-.85-.9-.85h-5.3v-5.27H35c.47 0 .84-.3.84-.8s-.37-.8-.83-.8h-2.3V121H38c.46 0 .83-.4.83-.85s-.4-.84-.84-.84h-5.3V114H35c.47 0 .84-.4.84-.86s-.37-.84-.83-.84h-2.3V107H38c.46 0 .83-.37.83-.83 0-.5-.4-.83-.84-.83h-5.3V100H35c.46 0 .83-.4.83-.86 0-.46-.37-.84-.83-.84h-2.37v-3c0-.9.73-1.65 1.62-1.65h6.46c.9 0 1.6.74 1.6 1.64v40.8zM40.74 92h-6.47c-1.8 0-3.27 1.5-3.27 3.33v41.34c0 1.84 1.47 3.33 3.27 3.33h5.9c2.1 0 3.83-1.75 3.83-3.9V95.34C44 93.5 42.53 92 40.73 92z"/>
    <path fill="#FEFEFE" d="M14.92 105.63h9.25m-10 28.4h10.75m-5.38-28.4v27.75m0-34.27v-2.5"/>
    <path fill="#43484D" d="M20.68 138.32h-3.36c-1.48 0-2.68-1.24-2.68-2.76v-.75h8.72v.8c0 1.5-1.2 2.8-2.7 2.8h.02zm-2.5-37.65c.2-.28.5-.44.82-.44.33 0 .63.16.8.44l2.84 4.33h-7.28l2.83-4.33zm1.64 6h3.52l.02.3v26.16h-3.54v-26.45zm-5.18.3c0-.1 0-.2.02-.3h3.52v26.46h-3.54v-26.16zm9.6-2.53l-3.07-4.7c-.33-.5-.8-.85-1.36-1.04v-1.85c0-.46-.3-.84-.8-.84-.4 0-.8.4-.8.9v1.9c-.5.2-1 .6-1.3 1.1l-3 4.7c-.5.8-.7 1.7-.7 2.6v28.6c0 2.5 2 4.5 4.4 4.5H21c2.4 0 4.36-2 4.36-4.4V107c0-.9-.27-1.78-.77-2.53v-.02z"/>
    <path fill="#43484D" d="M3.44 27.16c-.1 0-.17-.02-.25-.04l-2.6-.8c-.5-.14-.7-.6-.6-1.06.1-.45.6-.7 1-.56l2.5.8c.4.13.7.6.5 1.06-.1.36-.5.6-.8.6m7.7 2.37c-.1 0-.2 0-.3-.04L7 28.3c-.45-.14-.7-.62-.56-1.07.14-.45.62-.7 1.06-.56l3.82 1.2c.45.13.7.6.56 1.05-.1.36-.45.6-.8.6m37.12-1.37c-.07 0-.14 0-.22-.03l-3.86-1.05c-.45-.13-.72-.6-.6-1.05.13-.46.6-.72 1.05-.6l3.86 1.04c.46.12.72.6.6 1.04-.1.38-.44.63-.82.63m6.5 1.75s-.1 0-.2-.03l-2.6-.7c-.4-.13-.7-.6-.6-1.05.2-.45.6-.72 1.1-.6l2.6.7c.5.13.7.6.6 1.05-.1.38-.4.63-.8.63" opacity=".3"/>
    <path fill="#E0E7ED" d="M34.1 1.62H13.56c-1.66 0-3 1.35-3 3v36.5c0 1.65 1.34 3 3 3H42.5c1.67 0 3.02-1.35 3.02-3V13.3"/>
    <path fill="#43484D" d="M42.52 44.97H13.56c-2.12 0-3.85-1.73-3.85-3.85V4.62C9.7 2.5 11.5.77 13.6.77h20.5c.47 0 .85.38.85.85s-.38.85-.85.85H13.56c-1.18 0-2.15.97-2.15 2.15v36.5c0 1.18 1 2.15 2.2 2.15h29c1.2 0 2.2-.97 2.2-2.15V13.3c0-.47.4-.85.9-.85s.9.38.9.85v27.82c0 2.12-1.7 3.85-3.8 3.85"/>
    <path fill="#FEFEFE" d="M34.1 1.62v9.18c0 1.38 1.12 2.5 2.5 2.5h8.92L34.1 1.62z"/>
    <path fill="#43484D" d="M34.95 3.7v7.1c0 .9.74 1.65 1.65 1.65h6.9L34.95 3.7zm10.57 10.45H36.6c-1.85 0-3.35-1.5-3.35-3.35V1.62c0-.34.2-.65.53-.8.32-.1.68-.04.92.2L46.12 12.7c.24.24.3.6.18.92-.14.3-.45.52-.8.52h.02zM20.3 32.55c-.08 0-.16-.03-.25-.05l-9.74-2.97c-.4-.14-.7-.6-.5-1.06.2-.45.6-.7 1.1-.57l9.3 2.83 10.4-9c.3-.2.5-.27.8-.2l14.5 3.95c.5.12.7.6.6 1.04-.1.45-.6.7-1 .6L31.3 23.3l-10.4 9.02c-.15.14-.34.2-.55.2v.02z"/>
    <path fill="#FEFEFE" d="M22.6 29.86c.98 1.05.94 2.7-.1 3.7-1.05.98-2.7.94-3.7-.1-.98-1.05-.94-2.7.1-3.7 1.05-.98 2.7-.94 3.7.1"/>
    <path fill="#43484D" d="M20.7 29.9c-.45 0-.88.17-1.2.5-.72.66-.74 1.77-.08 2.47.65.68 1.8.7 2.5.07.7-.67.73-1.8.06-2.5-.33-.35-.8-.54-1.27-.54m0 5.22c-.9 0-1.8-.4-2.5-1.08-1.3-1.4-1.2-3.58.2-4.9 1.4-1.26 3.7-1.2 4.9.13 1.3 1.38 1.3 3.58-.1 4.9-.6.6-1.5.94-2.3.94"/>
    <path fill="#FEFEFE" d="M32.86 20.57c1 1.05.95 2.7-.1 3.7-1.04.98-2.7.94-3.68-.1-1-1.05-.95-2.7.1-3.7 1.04-.98 2.7-.94 3.68.1"/>
    <path fill="#43484D" d="M30.97 20.6c-.45 0-.88.18-1.2.5-.35.32-.54.75-.56 1.22 0 .47.2.92.5 1.26.7.7 1.8.72 2.5.07.7-.67.8-1.78.1-2.48-.3-.35-.8-.54-1.3-.54m0 5.22c-.9 0-1.8-.4-2.5-1.07-.6-.67-1-1.55-.9-2.47.1-.9.4-1.7 1.1-2.4 1.3-1.2 3.6-1.2 4.9.2 1.3 1.4 1.3 3.6-.1 4.9-.6.6-1.5 1-2.4 1"/>
  </g>
</svg>
