<svg xmlns="http://www.w3.org/2000/svg" width="15" height="15">
  <path fill="#BDC6CF" fill-rule="evenodd" d="M11.1115 11.0824c.3282-.9975.5206-2.0568.566-3.1412h2.4176c-.099 1.4978-.696 2.8584-1.631 3.9207-.431-.303-.882-.564-1.352-.78zm-.311.8298c.355.1668.6992.359 1.0292.5806-.5806.5043-1.249.907-1.9796 1.186.37-.549.687-1.1406.951-1.7666zm-6.5012-.049c.276.6662.6128 1.2944 1.009 1.8737-.793-.28-1.516-.704-2.1384-1.245.361-.242.738-.453 1.129-.63zM4.259 3.1156c-.3758-.1725-.7393-.376-1.0874-.6097.5983-.52 1.2905-.931 2.047-1.21-.3776.567-.698 1.176-.9595 1.819zm6.5825-.048c-.2493-.604-.5506-1.1767-.9027-1.7136.6958.277 1.3324.6684 1.889 1.1514-.317.2122-.6462.4002-.9863.562zm-2.9083 3.991v-2.37c.8206-.04 1.6214-.191 2.3846-.453.282.8987.4465 1.8508.4818 2.823H7.9332zm0 .8825h2.862c-.0437.971-.2145 1.918-.5026 2.811-.7548-.256-1.5467-.4-2.3594-.44v-2.37zm-.8823 0v2.372c-.769.039-1.518.174-2.234.407-.282-.883-.449-1.8183-.493-2.7774H7.05zm0-.882H4.32c.035-.958.195-1.896.47-2.784.7252.238 1.4836.374 2.2605.413v2.371zm7.044 0h-2.413c-.036-1.099-.218-2.161-.537-3.159.458-.213.898-.466 1.319-.76.934 1.062 1.531 2.423 1.63 3.92zM8.564.977c.5984.709 1.0854 1.533 1.4542 2.4296-.6683.228-1.3676.361-2.085.4V.9044c.2136.014.4236.038.631.072zM7.051.9058v2.9c-.6747-.038-1.333-.158-1.9638-.363.374-.9197.8713-1.7646 1.485-2.4877.158-.022.3172-.039.4787-.049zm-4.515 2.233c.452.317.9272.5883 1.423.811-.309.9834-.4865 2.029-.5214 3.109H.9044c.0997-1.498.697-2.8585 1.6315-3.9204zM.9043 7.941H3.443c.044 1.0663.2316 2.1075.5496 3.0904-.5082.225-.9935.5056-1.4567.8303-.935-1.063-1.532-2.423-1.632-3.921zm5.7613 6.1182c-.6383-.7257-1.1545-1.579-1.544-2.5112.6202-.198 1.266-.3163 1.9292-.3533v2.9c-.1294-.009-.2578-.02-.3853-.036zm1.2675.0362V11.194c.706.0384 1.395.1654 2.052.3864-.384.9106-.89 1.745-1.513 2.4578-.177.0265-.356.046-.538.0574zm4.977-1.41C14.202 11.3382 15 9.514 15 7.5 15 3.815 12.34.7575 8.8372.1257 8.8332.1253 8.8297.1244 8.8257.124 8.3947.0472 7.953 0 7.5 0 3.3578 0 0 3.3578 0 7.5c0 2.0215.8034 3.8528 2.104 5.2015.0048.007.0057.0154.011.0225.0124.016.03.0242.044.038C3.5194 14.1423 5.409 15 7.5 15c2.082 0 3.965-.8493 5.324-2.2196.0213-.0185.0473-.0295.0654-.053.0102-.0127.0124-.028.0207-.0418z"/>
</svg>
