<svg xmlns="http://www.w3.org/2000/svg" width="121" height="22">
  <path fill="#43484D" fill-rule="evenodd" d="M2.75 21.553V12.92c0-2.143 1.33-3.632 3.31-3.632 2.13 0 3.016 1.43 3.016 3.275v8.99h2.78V12.89c0-2.054 1.33-3.602 3.28-3.602 2.1 0 3.016 1.4 3.016 3.275v8.99h2.75v-9.288c0-3.75-2.424-5.448-4.908-5.448-1.803 0-3.636.655-4.76 2.71-.768-1.846-2.483-2.71-4.257-2.71-1.655 0-3.43.745-4.316 2.322V7.23H0v14.32h2.75zM32.562 19.5c-2.365 0-4.435-1.787-4.435-5.12 0-3.306 2.07-5.092 4.435-5.092 2.365 0 4.435 1.786 4.435 5.09 0 3.335-2.07 5.12-4.435 5.12zm0-12.712c-4.257 0-7.273 3.244-7.273 7.59 0 4.377 3.01 7.622 7.27 7.622s7.27-3.245 7.27-7.62c0-4.348-3.02-7.592-7.28-7.592zm13.612 7.56c0-2.946 1.656-5.03 4.2-5.03 2.54 0 4.078 2.024 4.078 4.972 0 2.947-1.566 5.18-4.11 5.18-2.66 0-4.168-2.174-4.168-5.12zm8.308 5.27c0 .864.09 1.608.148 1.935h2.69c-.028-.238-.147-1.28-.147-2.65V0h-2.75v9.258c-.472-1.16-1.832-2.41-4.345-2.41-4.02 0-6.74 3.452-6.74 7.5 0 4.258 2.57 7.592 6.74 7.592 2.217 0 3.725-1.19 4.405-2.56v.238zm17.78.21c0 .594.06 1.398.12 1.725h2.66c-.06-.506-.148-1.518-.148-2.65V7.233h-2.78v8.635c0 2.174-1.122 3.662-3.37 3.662-2.335 0-3.222-1.728-3.222-3.692V7.234h-2.78v9.02c0 3.245 2.012 5.746 5.323 5.746 1.655 0 3.43-.685 4.198-2.173zm11.278 1.725V0h-2.778v21.553h2.78zm7.67-8.633c.12-1.846 1.538-3.662 3.874-3.662 2.513 0 3.843 1.608 3.902 3.662H91.21zm8.19 3.72c-.532 1.61-1.685 2.89-3.99 2.89-2.396 0-4.23-1.787-4.288-4.347h10.702c.03-.18.06-.536.06-.893 0-4.466-2.454-7.502-6.83-7.502-3.577 0-6.8 3.066-6.8 7.56 0 4.854 3.34 7.652 7.155 7.652 3.31 0 5.58-1.995 6.38-4.525l-2.39-.835zm17.444-13.523c-.012-.133-.036-.278-.036-.4 0-.808.447-1.448 1.365-1.448.882 0 1.317.58 1.317 1.22 0 .56-.302 1.03-1.003 1.47l-1.293.81c-1.365.84-1.836 1.89-1.86 3.23H121V6.73h-3.878c.108-.387.423-.665.797-.894l1.52-.943c.94-.58 1.51-1.413 1.51-2.428 0-1.34-1.03-2.465-2.76-2.465-1.78 0-2.79 1.22-2.79 2.573 0 .157.02.34.03.447l1.4.097zm-7.406.98c0-.992.17-1.753.555-2.236.266-.35.64-.58 1.21-.58.567 0 .93.23 1.207.58.374.49.544 1.25.544 2.24 0 .99-.17 1.75-.544 2.24-.278.35-.64.58-1.208.58s-.943-.23-1.21-.58c-.373-.48-.554-1.24-.554-2.23zm-1.438 0c0 1.038.17 2.016.7 2.814.508.77 1.33 1.28 2.502 1.28 1.172 0 1.98-.51 2.49-1.28.53-.79.7-1.77.7-2.81s-.17-2.02-.7-2.81C113.18.52 112.372 0 111.2 0s-1.994.52-2.5 1.28c-.533.798-.702 1.777-.702 2.816z"/>
</svg>
